<svg width="23" height="16" viewBox="0 0 23 16" fill="none" xmlns="http://www.w3.org/2000/svg">
<path d="M21.1941 0H11.3695H1.54497C1.00238 0 0.5625 0.43988 0.5625 0.98247V15.0175C0.5625 15.5601 1.00238 16 1.54497 16H11.3695H21.1941C21.7367 16 22.1766 15.5601 22.1766 15.0175V0.98247C22.1766 0.43988 21.7367 0 21.1941 0Z" fill="#5286F9"/>
<path d="M12.1205 5.20414C12.3365 5.45152 12.5245 5.72381 12.6793 6.01644C12.9928 6.60918 13.1713 7.28399 13.1713 7.99996C13.1713 8.71592 12.9928 9.39065 12.6793 9.98347C12.5245 10.2761 12.3365 10.5483 12.1205 10.7957C11.8983 11.0503 11.6465 11.2781 11.3701 11.474C12.0647 11.9664 12.9119 12.2573 13.8263 12.2573C16.1738 12.2573 18.0836 10.3474 18.0836 7.99996C18.0836 5.65251 16.1738 3.74261 13.8263 3.74261C12.9119 3.74261 12.0647 4.03331 11.3701 4.52583C11.6464 4.72179 11.8982 4.94963 12.1205 5.20414Z" fill="#FFB655"/>
<path d="M12.6794 6.01654C12.5246 5.72382 12.3365 5.45162 12.1206 5.20424C11.8983 4.94964 11.6465 4.72193 11.3702 4.52601C10.6757 4.03349 9.82837 3.7428 8.91404 3.7428C6.56655 3.7428 4.65674 5.65265 4.65674 8.0001C4.65674 10.3475 6.56659 12.2574 8.91404 12.2574C9.82837 12.2574 10.6757 11.9667 11.3702 11.4742C11.6465 11.2783 11.8983 11.0504 12.1206 10.7959C12.3365 10.5485 12.5246 10.2762 12.6794 9.9837C12.9929 9.39087 13.1714 8.71606 13.1714 8.00018C13.1714 7.28405 12.9929 6.60928 12.6794 6.01654Z" fill="#D8143A"/>
<path d="M8.91339 12.2574C6.5659 12.2574 4.65609 10.3476 4.65609 8.00013C4.65609 5.65268 6.56594 3.74283 8.91339 3.74283C9.82773 3.74283 10.6749 4.03352 11.3695 4.52604V0H1.54497C1.00238 0 0.5625 0.43988 0.5625 0.98247V15.0175C0.5625 15.5601 1.00238 16 1.54497 16H11.3695V11.4741C10.6749 11.9666 9.82773 12.2574 8.91339 12.2574Z" fill="#3D6DEB"/>
</svg>
