<svg width="20" height="19" viewBox="0 0 20 19" fill="none" xmlns="http://www.w3.org/2000/svg">
<path d="M8.95216 14.1163C9.7401 14.1163 10.5203 13.9611 11.2483 13.6595C11.9762 13.358 12.6377 12.916 13.1948 12.3589C13.752 11.8017 14.1939 11.1403 14.4954 10.4124C14.797 9.6844 14.9522 8.90419 14.9522 8.11626C14.9522 7.32833 14.797 6.54811 14.4954 5.82016C14.1939 5.0922 13.752 4.43077 13.1948 3.87362C12.6377 3.31646 11.9762 2.87451 11.2483 2.57298C10.5203 2.27145 9.7401 2.11626 8.95216 2.11626C7.36086 2.11626 5.83474 2.7484 4.70952 3.87362C3.5843 4.99883 2.95216 6.52496 2.95216 8.11626C2.95216 9.70756 3.5843 11.2337 4.70952 12.3589C5.83474 13.4841 7.36086 14.1163 8.95216 14.1163ZM15.2722 13.0223L18.8522 16.6023C18.9476 16.6946 19.0237 16.805 19.076 16.927C19.1283 17.0491 19.1558 17.1803 19.1569 17.3131C19.158 17.4458 19.1326 17.5775 19.0822 17.7004C19.0318 17.8232 18.9575 17.9348 18.8635 18.0287C18.7696 18.1225 18.6579 18.1966 18.5349 18.2468C18.412 18.297 18.2803 18.3222 18.1475 18.321C18.0148 18.3198 17.8836 18.2921 17.7616 18.2396C17.6396 18.1871 17.5293 18.1108 17.4372 18.0153L13.8572 14.4353C12.2496 15.6831 10.227 16.2714 8.20092 16.0805C6.17488 15.8895 4.29777 14.9336 2.95171 13.4073C1.60566 11.8811 0.891848 9.8992 0.955589 7.86518C1.01933 5.83116 1.85583 3.89788 3.29481 2.4589C4.73379 1.01993 6.66706 0.183423 8.70109 0.119682C10.7351 0.0559411 12.717 0.769753 14.2432 2.11581C15.7695 3.46186 16.7254 5.33897 16.9164 7.36501C17.1073 9.39105 16.519 11.4137 15.2712 13.0213L15.2722 13.0223Z" fill="#181B19"/>
</svg>
